<svg xmlns="http://www.w3.org/2000/svg" width="280" height="280" viewBox="0 0 280 280" fill="none">
<rect y="0.000488281" width="280" height="280" rx="32" fill="#3daeea"/>
<g clip-path="url(#clip0_503_460)">
<path d="M40 40.0005H97.218V97.3071H40V40.0005ZM111.391 40.0005H168.609V97.3071H111.391V40.0005ZM211.391 40.0005C195.616 40.0005 182.782 52.8345 182.782 68.6095V68.6985C182.782 84.4735 195.616 97.3071 211.391 97.3071C227.166 97.3071 240 84.4735 240 68.6985V68.6095C240 52.8345 227.166 40.0005 211.391 40.0005ZM68.609 111.347C52.834 111.347 40 124.181 40 139.956V140.045C40 155.82 52.834 168.654 68.609 168.654C84.384 168.654 97.218 155.82 97.218 140.045V139.956C97.218 124.181 84.384 111.347 68.609 111.347ZM111.391 111.347H168.609V168.654H111.391V111.347ZM182.782 111.347H240V168.654H182.782V111.347ZM40 182.694H97.218V240H40V182.694ZM140 182.694C124.225 182.694 111.391 195.528 111.391 211.303V211.392C111.391 227.167 124.225 240 140 240C155.775 240 168.609 227.167 168.609 211.392V211.303C168.609 195.528 155.775 182.694 140 182.694ZM182.782 182.694H240V240H182.782V182.694Z" fill="black"/>
</g>
<defs>
<clipPath id="clip0_503_460">
<rect width="200" height="200" fill="white" transform="translate(40 40.0005)"/>
</clipPath>
</defs>
</svg>